<?xml version="1.0" encoding="utf-8"?>
<!-- Generator: Adobe Illustrator 28.0.0, SVG Export Plug-In . SVG Version: 6.00 Build 0)  -->
<svg version="1.1" id="Camada_1" xmlns="http://www.w3.org/2000/svg" xmlns:xlink="http://www.w3.org/1999/xlink" x="0px" y="0px"
	 viewBox="0 0 2000 1000" style="enable-background:new 0 0 2000 1000;" xml:space="preserve">
<style type="text/css">
	.st0{fill:#3B3C98;}
</style>
<g id="g9_00000035523982131142465930000007155305594791899570_">
	<path id="path3_00000051355638127289212090000011172621021715103107_" class="st0" d="M232.8,528.1c-10.9,0-20.3,6-25.4,14.8
		c-2.5,4.4-4.1,9.4-4.1,14.8c0,16.3,13.2,29.5,29.5,29.5s29.5-13.3,29.5-29.5c0-5.4-1.5-10.4-4.1-14.8
		C253.1,534.1,243.7,528.1,232.8,528.1z"/>
	<path id="path5_00000101803184538107263850000010954285514995390895_" class="st0" d="M439.4,528.1c-10.9,0-20.3,6-25.4,14.8
		c-2.5,4.4-4.1,9.4-4.1,14.8c0,16.3,13.2,29.5,29.5,29.5c16.3,0,29.5-13.3,29.5-29.5c0-5.4-1.5-10.4-4.1-14.8
		C459.7,534.1,450.3,528.1,439.4,528.1z"/>
	<path id="path7_00000071532849363360258560000014358581295743665024_" class="st0" d="M527.9,498.6v-14.8l-88.5-25.3l-103.3-63.2
		H173.8v14.8h88.5v14.8H100v14.8h177.1v14.8H129.5v14.8h73.8v14.8h-29.5v14.8h-59v14.8h73.8v14.8h-14.8v14.8h-44.3v14.8h59
		c0-5.2,1.1-10.1,2.7-14.8c6.1-17.1,22.3-29.5,41.6-29.5c19.3,0,35.4,12.4,41.6,29.5c1.6,4.6,2.7,9.6,2.7,14.8h118
		c0-5.2,1.1-10.1,2.7-14.8c6.1-17.1,22.3-29.5,41.6-29.5c19.3,0,35.4,12.4,41.6,29.5c1.6,4.6,2.7,9.6,2.7,14.8h44.3v-14.8h14.8
		v-44.3H527.9z"/>
</g>
<g>
	<path d="M777.3,406.8h-44.5c0-16.4-9.5-29.9-29.1-29.9c-18.6,0-30.6,11.7-30.6,44.5v102.4c0,32.8,12,44.5,30.6,44.5
		c19.7,0,29.1-13.5,29.1-29.9h44.5c-4,46.6-29.1,70-73.6,70c-53.6,0-77.2-33.9-77.2-84.5V421.4c0-50.6,23.7-84.5,77.2-84.5
		C748.1,336.9,773.3,360.2,777.3,406.8z"/>
	<path d="M960.2,604.7h-40.1v-18.2c-8,12.4-24,21.9-50.6,21.9c-42.6,0-63-24.4-63-56.1c0-33.5,22.2-57.9,68.5-57.9
		c18.2,0,32.4,3.6,40.8,8v-17.1c0-17.9-12-25.5-29.9-25.5c-16,0-27.3,6.2-33.5,16l-38.3-16.4c13.5-26.6,41.2-40.1,75.1-40.1
		c46.3,0,71.1,25.5,71.1,64.9V604.7z M915.7,532.2c-6.9-4.4-20.8-8.4-34.3-8.4c-21.9,0-31.7,10.6-31.7,24.8
		c0,16,12.4,22.6,26.2,22.6c16.4,0,32.4-9.5,39.7-21.9V532.2z"/>
	<path d="M1140.9,461.5l-39.4,19.3c-2.9-12.8-8.7-24.8-25.5-24.8c-17.9,0-31,13.8-35.7,32.1v116.6h-41.9V423.2h40.4v24.4
		c14.2-20,32.1-28.4,52.5-28.4C1120.1,419.2,1138.7,436.3,1140.9,461.5z"/>
	<path d="M1249.9,340.5c48.5,0,78,28.4,78,80.5c0,41.2-18.6,69.6-49.9,78l55.4,105.7H1279l-55-106v106h-47.4V340.5H1249.9z
		 M1224,470.2h21.9c21.1,0,33.9-14.6,33.9-44.8c0-31.3-13.5-40.4-39.4-40.4H1224V470.2z"/>
	<path d="M1396.3,525.2c2.9,28.8,16,43,40.1,43c16.4,0,29.9-6.6,35.3-18.2l36.8,13.8c-12.8,33.5-42.6,44.5-71.8,44.5
		c-54.7,0-83.4-38.3-83.4-94c0-59,32.1-95.1,80.5-95.1c44.8,0,77.6,31,77.6,89.6c0,6.2,0,11.3-0.7,16.4H1396.3z M1469.2,500.8
		c-2.2-26.6-14.2-42.6-36.8-42.6c-23.3,0-32.4,17.5-36.8,42.6H1469.2z"/>
	<path d="M1691.1,604.7h-44.5V488.4c0-24.4-9.5-32.4-24.8-32.4c-18.6,0-28.8,12-36.4,24v124.6H1541V423.2h43v14.6
		c10.2-12,26.2-18.6,49.2-18.6c39.7,0,57.9,19.7,57.9,63.8V604.7z"/>
	<path d="M1862.4,604.7h-52.8c-33.5,0-46.6-16-46.6-48.8v-93.6h-39.4v-39h39.4v-49.9h44.5v49.9h39.4v39h-39.4v83.1
		c0,10.6,3.6,16.8,14.6,16.8h40.4V604.7z"/>
</g>
</svg>
